<svg height="512" viewBox="0 0 60 60" width="512" xmlns="http://www.w3.org/2000/svg"><g id="Page-1" fill="none" fill-rule="evenodd"><g id="010---Surverying-Measurments" fill="rgb(0,0,0)" fill-rule="nonzero"><path id="Shape" d="m3 60h6c1.6568542 0 3-1.3431458 3-3v-54c0-1.65685425-1.3431458-3-3-3h-6c-1.65685425 0-3 1.34314575-3 3v54c0 1.6568542 1.34314575 3 3 3zm-1-57c0-.55228475.44771525-1 1-1h6c.55228475 0 1 .44771525 1 1v2h-3c-.55228475 0-1 .44771525-1 1s.44771525 1 1 1h3v2h-1c-.55228475 0-1 .44771525-1 1 0 .5522847.44771525 1 1 1h1v2h-3c-.55228475 0-1 .4477153-1 1s.44771525 1 1 1h3v2h-1c-.55228475 0-1 .4477153-1 1s.44771525 1 1 1h1v2h-3c-.55228475 0-1 .4477153-1 1s.44771525 1 1 1h3v2h-1c-.55228475 0-1 .4477153-1 1s.44771525 1 1 1h1v2h-3c-.55228475 0-1 .4477153-1 1s.44771525 1 1 1h3v2h-1c-.55228475 0-1 .4477153-1 1s.44771525 1 1 1h1v2h-3c-.55228475 0-1 .4477153-1 1s.44771525 1 1 1h3v2h-1c-.55228475 0-1 .4477153-1 1s.44771525 1 1 1h1v2h-3c-.55228475 0-1 .4477153-1 1s.44771525 1 1 1h3v10c0 .5522847-.44771525 1-1 1h-6c-.55228475 0-1-.4477153-1-1z"/><path id="Shape" d="m37 19c3.3137085 0 6-2.6862915 6-6s-2.6862915-6-6-6-6 2.6862915-6 6c.0033074 3.3123376 2.6876624 5.9966926 6 6zm0-10c2.209139 0 4 1.790861 4 4s-1.790861 4-4 4-4-1.790861-4-4 1.790861-4 4-4z"/><path id="Shape" d="m16.4 60h3.885c.8536288-.0000359 1.6131438-.5418581 1.891-1.349l6.838-19.831c.316055.115576.6494945.1764473.986.18h3v19c0 1.1045695.8954305 2 2 2h4c1.1045695 0 2-.8954305 2-2v-19h3c.3365055-.0035527.669945-.064424.986-.18l6.836 19.83c.2775146.8075367 1.037109 1.3498172 1.891 1.35h3.887c.646397-.000239 1.2528242-.31287 1.6279714-.839267s.4727541-1.2016488.2620286-1.812733l-9.19-26.655c1.0366852-.4968508 1.6973392-1.5434044 1.7-2.693v-13c0-1.6568542-1.3431458-3-3-3h-2v-9c0-1.65685425-1.3431458-3-3-3h-14c-1.6568542 0-3 1.34314575-3 3v9h-2c-1.6568542 0-3 1.3431458-3 3v13c.0026608 1.1495956.6633148 2.1961492 1.7 2.693l-9.188 26.655c-.2106111.6107508-.1132319 1.2856223.2614475 1.8119197.3746793.5262975.9805085.8391956 1.6265525.8400803zm22.6-2h-4v-19h4zm1-21h-10c-.5522847 0-1-.4477153-1-1v-5h16v5c0 .5522847-.4477153 1-1 1zm13.713 21-7.091-20.571c.2443742-.4368822.3743983-.9284285.378-1.429v-5h1.287l9.313 27zm-23.713-56h14c.5522847 0 1 .44771525 1 1v1h-2c-.5522847 0-1 .44771525-1 1s.4477153 1 1 1h2v14h-2c-.5522847 0-1 .4477153-1 1s.4477153 1 1 1h2v1c0 .5522847-.4477153 1-1 1h-14c-.5522847 0-1-.4477153-1-1v-1h2c.5522847 0 1-.4477153 1-1s-.4477153-1-1-1h-2v-14h2c.5522847 0 1-.44771525 1-1s-.4477153-1-1-1h-2v-1c0-.55228475.4477153-1 1-1zm-6 13c0-.5522847.4477153-1 1-1h2v9c0 1.6568542 1.3431458 3 3 3h14c1.6568542 0 3-1.3431458 3-3v-9h2c.5522847 0 1 .4477153 1 1v13c0 .5522847-.4477153 1-1 1h-24c-.5522847 0-1-.4477153-1-1zm1.713 16h1.287v5c.0036017.5005715.1336258.9921178.378 1.429l-7.091 20.571h-3.887z"/><path id="Shape" d="m6 56c1.65685425 0 3-1.3431458 3-3s-1.34314575-3-3-3-3 1.3431458-3 3 1.34314575 3 3 3zm0-4c.55228475 0 1 .4477153 1 1s-.44771525 1-1 1-1-.4477153-1-1 .44771525-1 1-1z"/></g></g></svg>