<?xml version="1.0" encoding="iso-8859-1"?>
<!-- Generator: Adobe Illustrator 18.0.0, SVG Export Plug-In . SVG Version: 6.00 Build 0)  -->
<!DOCTYPE svg PUBLIC "-//W3C//DTD SVG 1.1//EN" "http://www.w3.org/Graphics/SVG/1.1/DTD/svg11.dtd">
<svg version="1.1" id="Capa_1" xmlns="http://www.w3.org/2000/svg" xmlns:xlink="http://www.w3.org/1999/xlink" x="0px" y="0px"
	 viewBox="0 0 495.122 495.122" style="enable-background:new 0 0 495.122 495.122;" xml:space="preserve">
<g>
	<path d="M493.744,182.616c-2.205-4.398-6.703-7.174-11.622-7.174H369.847c-2.057,0-4.084,0.488-5.916,1.424l-18.165,9.284v-25.126
		c21.649-5.755,37.65-25.517,37.65-48.952c0-27.929-22.722-50.651-50.65-50.651c-17.803,0-33.479,9.241-42.514,23.169
		c-9.155-28.296-35.743-48.823-67.048-48.823c-25.826,0-48.438,13.975-60.706,34.751c-10.034-34.496-41.908-59.789-79.597-59.789
		C37.189,10.729,0,47.919,0,93.631c0,41.288,30.344,75.615,69.901,81.873v151.635L9.895,357.806
		c-6.393,3.267-8.927,11.099-5.66,17.492c3.267,6.393,11.097,8.929,17.492,5.66l351.249-179.516h15.24l-20.554,15.63
		c-5.715,4.346-6.825,12.501-2.479,18.217c2.558,3.363,6.435,5.131,10.358,5.131c2.742,0,5.508-0.865,7.859-2.653l47.769-36.326
		h25.021L260.42,463.614c-4.295,5.753-3.114,13.899,2.638,18.195c2.335,1.743,5.063,2.584,7.768,2.584
		c3.961,0,7.874-1.805,10.427-5.223l211.285-282.95C495.482,192.279,495.948,187.014,493.744,182.616z M332.766,87.421
		c13.592,0,24.65,11.059,24.65,24.651c0,13.592-11.058,24.65-24.65,24.65c-13.593,0-24.651-11.058-24.651-24.65
		C308.115,98.479,319.173,87.421,332.766,87.421z M287.558,134.871c6.455,12.746,18.132,22.411,32.208,26.153v38.415l-83.562,42.706
		v-66.676C259.188,171.161,278.264,155.67,287.558,134.871z M223.205,61.767c24.516,0,44.461,19.946,44.461,44.462
		c0,24.516-19.945,44.461-44.461,44.461c-24.517,0-44.462-19.945-44.462-44.461C178.742,81.713,198.688,61.767,223.205,61.767z
		 M26,93.631c0-31.375,25.526-56.901,56.901-56.901c31.375,0,56.9,25.526,56.9,56.901c0,31.375-25.525,56.9-56.9,56.9
		C51.526,150.531,26,125.005,26,93.631z M95.901,175.503c26.842-4.246,49.427-21.423,61.181-44.927
		c8.476,22.948,28.58,40.294,53.122,44.892v79.964L95.901,313.85V175.503z"/>
	<path d="M189.929,358.845l-95.21,76.99c-5.582,4.514-6.449,12.7-1.934,18.283c2.569,3.177,6.326,4.826,10.116,4.826
		c2.871,0,5.76-0.946,8.167-2.892l95.211-76.99c5.582-4.514,6.449-12.7,1.934-18.283
		C203.697,355.197,195.512,354.331,189.929,358.845z"/>
	<path d="M344.188,270.174c5.643-4.439,6.618-12.613,2.179-18.255c-4.439-5.643-12.613-6.618-18.255-2.179l-85.927,67.602
		c-5.643,4.439-6.618,12.613-2.179,18.255c2.565,3.261,6.376,4.962,10.226,4.962c2.813,0,5.647-0.909,8.029-2.783L344.188,270.174z"
		/>
</g>
<g>
</g>
<g>
</g>
<g>
</g>
<g>
</g>
<g>
</g>
<g>
</g>
<g>
</g>
<g>
</g>
<g>
</g>
<g>
</g>
<g>
</g>
<g>
</g>
<g>
</g>
<g>
</g>
<g>
</g>
</svg>
